<svg version="1.0" xmlns="http://www.w3.org/2000/svg"
 width="2024.000000pt" height="2024.000000pt" viewBox="0 0 2224.000000 2024.000000"
 preserveAspectRatio="xMidYMid meet">

<g transform="translate(-150.000000,2224.000000) scale(0.25000,-0.25000)"
fill="" stroke="none">
<path fill="#114354" d="M5070 8783 c-65 -22 -103 -49 -125 -86 l-24 -42 -8 -495 -8 -495 -79
-7 c-235 -21 -664 -100 -870 -159 -59 -17 -112 -27 -116 -22 -4 4 -81 192
-171 418 -90 225 -175 422 -188 438 -52 61 -157 85 -235 53 -78 -33 -145 -122
-146 -194 0 -46 28 -125 179 -511 72 -184 131 -340 131 -348 0 -8 -47 -35
-112 -65 -178 -82 -371 -184 -523 -276 -77 -46 -153 -92 -168 -101 -27 -16
-29 -15 -55 14 -15 17 -124 141 -242 275 -304 346 -306 348 -354 361 -128 34
-278 -90 -278 -230 0 -26 7 -61 15 -77 9 -17 126 -160 261 -320 135 -159 246
-292 246 -295 0 -3 -73 -68 -162 -144 -188 -160 -629 -597 -772 -765 -202
-236 -418 -530 -477 -648 -56 -111 -37 -180 116 -412 93 -140 301 -416 407
-538 189 -216 499 -527 723 -722 703 -612 1519 -1023 2325 -1170 302 -55 407
-64 745 -64 427 0 671 30 1070 130 398 100 769 254 1167 482 714 411 1453
1092 1971 1814 138 192 187 290 187 369 0 75 -14 108 -96 227 -323 467 -725
904 -1236 1340 -54 46 -98 87 -98 90 0 4 40 55 88 113 135 163 365 457 389
497 43 71 22 194 -45 265 -36 39 -69 55 -129 63 -76 10 -128 -18 -197 -103
-294 -363 -388 -477 -429 -522 l-47 -53 -158 95 c-173 104 -435 242 -582 307
-52 24 -98 46 -103 49 -4 4 20 77 54 162 77 193 244 653 254 696 4 19 1 49 -5
70 -47 144 -231 200 -355 108 -35 -26 -51 -58 -144 -300 -117 -303 -219 -547
-235 -563 -14 -14 -27 -12 -128 16 -192 53 -571 123 -748 137 -41 3 -102 8
-135 11 l-60 5 -3 502 -3 502 -25 38 c-34 52 -110 87 -184 86 -30 0 -62 -3
-70 -6z m525 -1722 c750 -101 1498 -428 2130 -930 249 -198 665 -600 915 -886
128 -146 163 -196 185 -262 22 -67 12 -89 -101 -229 -222 -276 -405 -470 -696
-741 -373 -348 -620 -530 -1037 -766 -655 -369 -1355 -543 -2046 -508 -214 11
-333 27 -533 72 -626 138 -1187 406 -1752 834 -201 153 -339 275 -599 530
-385 378 -631 677 -631 765 0 80 226 356 595 726 417 419 775 692 1220 933
451 243 943 403 1435 465 187 24 193 24 490 21 205 -3 313 -9 425 -24z"/>
<circle r="1700" cx="5100" cy="4900" fill="#3DBF9A" />
<path fill="#114354" d="M4900 6649 c-281 -36 -613 -165 -840 -326 -133 -94 -350 -313 -429
-433 -126 -189 -212 -391 -267 -626 -27 -113 -28 -131 -28 -354 0 -182 4 -258
18 -335 100 -554 561 -1093 1112 -1301 221 -83 396 -114 644 -114 393 1 667
76 995 275 180 109 309 222 434 379 185 233 294 460 346 720 85 430 45 787
-128 1128 -145 287 -317 485 -595 685 -148 107 -434 233 -621 273 -175 38
-469 51 -641 29z m1600 -925 c0 -4 -8 -21 -19 -38 -10 -17 -126 -206 -257
-421 -130 -214 -312 -514 -404 -665 -477 -787 -624 -1028 -642 -1052 -28 -40
-70 -38 -96 5 -57 94 -379 620 -1103 1798 -121 196 -219 359 -219 363 0 3 170
6 378 6 l377 -1 66 -112 c36 -62 175 -293 309 -515 l243 -403 30 53 c16 29
155 263 309 521 l278 467 375 0 c206 0 375 -3 375 -6z"/>
</g>
</svg>
